<?xml version="1.0" encoding="iso-8859-1"?>
<!-- Generator: Adobe Illustrator 19.0.0, SVG Export Plug-In . SVG Version: 6.00 Build 0)  -->
<svg xmlns="http://www.w3.org/2000/svg" xmlns:xlink="http://www.w3.org/1999/xlink" version="1.1" id="Layer_1" x="0px" y="0px" viewBox="0 0 512 512" style="enable-background:new 0 0 512 512;" xml:space="preserve" width="512" height="512">
<g id="XMLID_2516_">
	<g id="XMLID_1020_">
		<g id="XMLID_451_">
			<path id="XMLID_818_" d="M452.111,412.175c5.166-7.436,8.204-16.455,8.204-26.175c0-25.364-20.636-46-46-46s-46,20.636-46,46     c0,9.72,3.038,18.739,8.204,26.175c-17.103,1.284-32.064,10.337-41.361,23.64c-9.297-13.303-24.259-22.355-41.361-23.64     C298.962,404.739,302,395.72,302,386c0-25.364-20.636-46-46-46s-46,20.636-46,46c0,9.72,3.038,18.739,8.204,26.175     c-17.103,1.284-32.064,10.337-41.361,23.64c-9.297-13.303-24.259-22.355-41.361-23.64c5.166-7.436,8.204-16.455,8.204-26.175     c0-25.364-20.636-46-46-46s-46,20.636-46,46c0,9.72,3.038,18.739,8.204,26.175c-28.68,2.154-51.361,26.16-51.361,55.381V502     c0,5.523,4.478,10,10,10h474.943c5.522,0,10-4.477,10-10v-34.444C503.472,438.335,480.791,414.328,452.111,412.175z M414.314,360     c14.337,0,26,11.664,26,26s-11.663,26-26,26s-26-11.664-26-26S399.978,360,414.314,360z M256,360c14.337,0,26,11.664,26,26     s-11.663,26-26,26s-26-11.664-26-26S241.663,360,256,360z M97.686,360c14.337,0,26,11.664,26,26s-11.663,26-26,26     s-26-11.664-26-26S83.349,360,97.686,360z M28.528,467.556c0-19.605,15.95-35.556,35.556-35.556h23.602v30     c0,5.523,4.478,10,10,10s10-4.477,10-10v-30h23.602c19.605,0,35.556,15.95,35.556,35.556V492H28.528V467.556z M186.843,467.556     c0-19.605,15.95-35.556,35.556-35.556H246v30c0,5.523,4.478,10,10,10s10-4.477,10-10v-30h23.602     c19.605,0,35.556,15.95,35.556,35.556V492H186.843V467.556z M483.472,492H345.157v-24.444c0-19.605,15.95-35.556,35.556-35.556     h23.602v30c0,5.523,4.478,10,10,10s10-4.477,10-10v-30h23.602c19.605,0,35.556,15.95,35.556,35.556V492z"/>
			<path id="XMLID_842_" d="M92,322.063c5.522,0,10-4.477,10-10V299h144v13.063c0,5.523,4.478,10,10,10s10-4.477,10-10V299h40     c5.522,0,10-4.477,10-10s-4.478-10-10-10h-40v-27.371h96.205c5.522,0,10-4.477,10-10v-64.312c0-29.224-23.775-53-53-53h-19.858     c8.408-9.885,13.498-22.676,13.498-36.64V58.702V56.64c0-31.231-25.408-56.64-56.64-56.64s-56.64,25.409-56.64,56.64v2.062     v28.975c0,13.964,5.09,26.755,13.498,36.64h-19.858c-29.225,0-53,23.776-53,53v64.312c0,5.523,4.478,10,10,10H246V279H92     c-5.522,0-10,4.477-10,10v23.063C82,317.586,86.478,322.063,92,322.063z M219.565,87.677v-9.81h12.804     c15.278,0,29.809-5.648,40.983-15.729l19.492,11.452v14.087c0,20.204-16.437,36.64-36.64,36.64S219.565,107.881,219.565,87.677z      M228.149,144.317h19.606l-19.606,12.615V144.317z M264.654,144.317h19.606v12.615L264.654,144.317z M219.565,56.64     c0-20.204,16.437-36.64,36.64-36.64c17.953,0,32.931,12.978,36.045,30.045l-15.54-9.13c-4.21-2.473-9.593-1.545-12.73,2.199     c-7.856,9.376-19.378,14.753-31.61,14.753h-12.804V56.64z M160.205,177.317c0-18.196,14.804-33,33-33h14.944v30.939     c0,3.659,1.998,7.025,5.21,8.778c3.212,1.753,7.123,1.612,10.201-0.368l22.645-14.569v11.989c0,5.523,4.478,10,10,10     s10-4.477,10-10v-11.989l22.645,14.569c1.644,1.058,3.525,1.59,5.411,1.59c1.646,0,3.294-0.405,4.79-1.222     c3.212-1.752,5.21-5.119,5.21-8.778v-30.939h14.944c18.196,0,33,14.804,33,33v54.312h-192V177.317z"/>
			<path id="XMLID_1074_" d="M338.93,281.93c-1.86,1.86-2.93,4.44-2.93,7.07c0,2.63,1.069,5.21,2.93,7.07S343.37,299,346,299     s5.21-1.07,7.069-2.93c1.86-1.86,2.931-4.44,2.931-7.07c0-2.63-1.07-5.21-2.931-7.07C351.21,280.07,348.63,279,346,279     S340.79,280.07,338.93,281.93z"/>
			<path id="XMLID_1077_" d="M386,299h24.254v13.063c0,5.523,4.478,10,10,10s10-4.477,10-10V289c0-5.523-4.478-10-10-10H386     c-5.522,0-10,4.477-10,10S380.478,299,386,299z"/>
		</g>
	</g>
</g>















</svg>
