<svg width="31" height="31" viewBox="0 0 31 31" fill="none" xmlns="http://www.w3.org/2000/svg">
<path d="M15.5 6.66406C12.3266 6.66406 9.74484 9.24584 9.74484 12.4192C9.74484 15.5926 12.3266 18.1744 15.5 18.1744C18.6734 18.1744 21.2552 15.5926 21.2552 12.4192C21.2552 9.24584 18.6734 6.66406 15.5 6.66406ZM15.5 15.7512C13.6628 15.7512 12.168 14.2565 12.168 12.4192C12.168 10.582 13.6628 9.08727 15.5 9.08727C17.3372 9.08727 18.832 10.582 18.832 12.4192C18.832 14.2565 17.3372 15.7512 15.5 15.7512Z" fill="black"/>
<path d="M15.5 0C8.65206 0 3.0809 5.57122 3.0809 12.4191V12.7624C3.0809 16.2257 5.06648 20.2615 8.98265 24.7575C11.8216 28.0169 14.6208 30.2895 14.7385 30.3847L15.5 31L16.2614 30.3848C16.3792 30.2896 19.1784 28.0169 22.0173 24.7576C25.9334 20.2615 27.9191 16.2257 27.9191 12.7624V12.4191C27.9191 5.57122 22.3479 0 15.5 0ZM25.4958 12.7624C25.4958 18.6152 17.9547 25.7001 15.5 27.8508C13.0446 25.6994 5.50411 18.6148 5.50411 12.7624V12.4191C5.50411 6.90743 9.98827 2.42327 15.5 2.42327C21.0117 2.42327 25.4958 6.90743 25.4958 12.4191V12.7624Z" fill="black"/>
</svg>
