<svg width="82" height="82" viewBox="0 0 82 82" fill="none" xmlns="http://www.w3.org/2000/svg">
<path d="M79.5977 30.5602H75.6314C74.9171 28.2673 73.9682 26.0541 72.7958 23.9469L76.4852 20.29C76.9387 19.8406 77.1945 19.229 77.1963 18.5906C77.198 17.9522 76.9456 17.3392 76.4946 16.8872L65.1541 5.52043C64.2191 4.58303 62.7021 4.57935 61.762 5.5113L57.7881 9.45178C55.7514 8.4026 53.621 7.5488 51.4215 6.90033V2.40234C51.4215 1.07561 50.3459 0 49.0192 0H32.981C31.6542 0 30.5786 1.07561 30.5786 2.40234V6.90017C28.3792 7.54864 26.2486 8.40244 24.2121 9.45162L20.238 5.51114C19.2979 4.57903 17.7809 4.58303 16.8459 5.52027L5.50537 16.887C5.05437 17.339 4.8018 17.9519 4.80373 18.5905C4.80565 19.229 5.06142 19.8405 5.51482 20.2899L9.20434 23.9467C8.032 26.0539 7.08291 28.2671 6.36861 30.5601H2.40234C1.07561 30.5601 0 31.6357 0 32.9624V49.0373C0 50.364 1.07561 51.4396 2.40234 51.4396H6.36861C7.08291 53.7326 8.03184 55.9458 9.20434 58.053L5.51482 61.7098C5.06126 62.1592 4.80549 62.7708 4.80373 63.4092C4.80196 64.0476 5.05437 64.6607 5.50537 65.1126L16.8459 76.4793C17.7809 77.4165 19.2979 77.4203 20.238 76.4885L24.2121 72.5481C26.2486 73.5972 28.3792 74.451 30.5786 75.0995V79.5977C30.5786 80.9244 31.6542 82 32.981 82H49.019C50.3458 82 51.4214 80.9244 51.4214 79.5977V75.0998C53.6208 74.4514 55.7514 73.5976 57.7879 72.5484L61.7619 76.4889C62.702 77.421 64.219 77.4171 65.154 76.4797L76.4945 65.1131C76.9455 64.6612 77.198 64.0482 77.1961 63.4097C77.1942 62.7712 76.9384 62.1597 76.485 61.7103L72.7955 58.0534C73.9678 55.9461 74.9169 53.7329 75.6312 51.4401H79.5977C80.9244 51.4401 82 50.3645 82 49.0378V32.9629C82 31.6358 80.9244 30.5602 79.5977 30.5602ZM77.1953 46.6351H73.8141C72.7145 46.6351 71.7554 47.3816 71.4853 48.4474C70.7058 51.524 69.4465 54.4554 67.7419 57.1599C67.1415 58.1125 67.2834 59.3544 68.0831 60.147L71.3909 63.4256L63.4443 71.3904L59.8981 67.8744C59.1268 67.1096 57.9383 66.9573 56.999 67.5036C54.3356 69.0523 51.4628 70.2013 48.4609 70.918C47.3795 71.1762 46.6165 72.1427 46.6165 73.2547V77.1953H35.3832V73.2548C35.3832 72.143 34.6202 71.1763 33.5388 70.9182C30.5368 70.2013 27.6643 69.0525 25.0009 67.5038C24.0617 66.9575 22.8732 67.1098 22.1017 67.8745L18.5555 71.3908L10.6089 63.4259L13.9168 60.1473C14.7164 59.3545 14.8583 58.1129 14.2579 57.1602C12.5534 54.4557 11.2941 51.5243 10.5146 48.4477C10.2446 47.3819 9.28538 46.6354 8.18575 46.6354H4.80469V35.3652H8.18591C9.28554 35.3652 10.2446 34.6187 10.5147 33.5529C11.2942 30.4763 12.5535 27.545 14.2581 24.8404C14.8585 23.8878 14.7166 22.6459 13.9169 21.8533L10.6091 18.5746L18.5557 10.6096L22.1019 14.1258C22.8734 14.8907 24.0619 15.043 25.001 14.4965C27.6644 12.9478 30.537 11.799 33.539 11.0822C34.6203 10.824 35.3833 9.85746 35.3833 8.74549V4.80469H46.6167V8.74517C46.6167 9.85698 47.3797 10.8237 48.461 11.0819C51.463 11.7987 54.3356 12.9475 56.9991 14.4962C57.9383 15.0424 59.127 14.8902 59.8983 14.1255L63.4445 10.6094L71.3911 18.5744L68.0832 21.8532C67.2834 22.6458 67.1417 23.8876 67.7421 24.8402C69.4465 27.5445 70.7059 30.4758 71.4854 33.5526C71.7554 34.6184 72.7146 35.3649 73.8143 35.3649H77.1953V46.6351Z" fill="#6C6C6C"/>
<path d="M46.6505 17.4231C45.9218 17.1984 45.1295 17.3329 44.516 17.786C43.9023 18.2389 43.5403 18.9563 43.5403 19.7188V30.702L40.9967 32.6861L38.4376 30.6988V19.726C38.4376 18.9627 38.0748 18.2449 37.4605 17.7921C36.8459 17.3392 36.0533 17.2051 35.324 17.4313C31.501 18.6159 28.0686 21.0412 25.6589 24.2598C23.1649 27.5909 21.8468 31.5567 21.8468 35.7283C21.8468 41.5604 24.5117 47.06 29.0345 50.6832V62.2808C29.0345 63.6075 30.1101 64.6831 31.4368 64.6831H50.5632C51.8899 64.6831 52.9655 63.6075 52.9655 62.2808V50.6832C57.4883 47.06 60.1532 41.5604 60.1532 35.7283C60.1532 31.5519 58.8322 27.5826 56.3334 24.2493C53.9186 21.0282 50.4797 18.6039 46.6505 17.4231ZM49.19 47.5104C48.5452 47.9596 48.1608 48.6957 48.1608 49.4816V59.8786H33.8392V49.4816C33.8392 48.6957 33.4548 47.9596 32.81 47.5104C28.9538 44.8239 26.6515 40.4195 26.6515 35.7285C26.6515 32.603 27.6382 29.6331 29.505 27.1396C30.6248 25.6439 32.0384 24.3769 33.6327 23.4184V31.875C33.6327 32.617 33.9756 33.3173 34.5616 33.7723L39.5265 37.6279C40.3948 38.3022 41.6104 38.3011 42.4775 37.6247L47.4201 33.7691C48.0037 33.314 48.3448 32.615 48.3448 31.875V23.4046C49.9454 24.3628 51.3646 25.6319 52.4889 27.1314C54.3595 29.6267 55.3483 32.5997 55.3483 35.7286C55.3485 40.4193 53.0462 44.8238 49.19 47.5104Z" fill="#6C6C6C"/>
</svg>
