<svg width="63" height="75" viewBox="0 0 63 75" fill="none" xmlns="http://www.w3.org/2000/svg">
<path d="M31.0714 36.4286C36.0759 36.4286 40.4087 34.6336 43.9501 31.0922C47.4902 27.5513 49.2857 23.2189 49.2857 18.2137C49.2857 13.2102 47.4908 8.87722 43.9495 5.33522C40.4082 1.79495 36.0753 0 31.0714 0C26.0664 0 21.7341 1.79495 18.1933 5.33579C14.6526 8.87664 12.8571 13.2097 12.8571 18.2137C12.8571 23.2189 14.6526 27.5519 18.1933 31.0928C21.7352 34.633 26.0681 36.4286 31.0714 36.4286ZM21.3273 8.46931C24.0442 5.75237 27.2312 4.43169 31.0714 4.43169C34.911 4.43169 38.0986 5.75237 40.8161 8.46931C43.5329 11.1868 44.8541 14.3746 44.8541 18.2137C44.8541 22.054 43.5329 25.2412 40.8161 27.9587C38.0986 30.6762 34.911 31.9969 31.0714 31.9969C27.2324 31.9969 24.0453 30.6756 21.3273 27.9587C18.6099 25.2417 17.2887 22.054 17.2887 18.2137C17.2887 14.3746 18.6099 11.1868 21.3273 8.46931Z" fill="#6C6C6C"/>
<path d="M62.7048 57.7611C62.6031 56.3073 62.3973 54.7214 62.0944 53.0467C61.7886 51.3594 61.3948 49.7644 60.9235 48.3066C60.4361 46.7998 59.7745 45.3118 58.9554 43.8858C58.1064 42.4058 57.1085 41.117 55.9888 40.0565C54.8179 38.947 53.3844 38.055 51.7266 37.4044C50.0746 36.7572 48.2439 36.4293 46.2855 36.4293C45.5164 36.4293 44.7727 36.7418 43.3362 37.668C42.4522 38.2389 41.4181 38.8992 40.2639 39.6296C39.277 40.2523 37.94 40.8358 36.2885 41.3641C34.6774 41.8804 33.0415 42.1422 31.4263 42.1422C29.8122 42.1422 28.1763 41.8804 26.564 41.3641C24.9143 40.8364 23.5767 40.2529 22.5915 39.6301C21.4482 38.9066 20.4136 38.2463 19.5163 37.6674C18.081 36.7412 17.3372 36.4287 16.5682 36.4287C14.6092 36.4287 12.779 36.7572 11.1276 37.405C9.47105 38.0545 8.03691 38.9465 6.86489 40.0571C5.74517 41.1181 4.74731 42.4063 3.8989 43.8858C3.08095 45.3118 2.41878 46.7992 1.93134 48.3071C1.46058 49.765 1.06684 51.3594 0.761041 53.0467C0.457544 54.7191 0.252339 56.3056 0.150599 57.7629C0.0505828 59.1877 0 60.6706 0 62.1688C0 66.0636 1.2502 69.2166 3.71553 71.542C6.15041 73.8366 9.37161 75.0001 13.29 75.0001H49.5671C53.4844 75.0001 56.7056 73.8366 59.141 71.542C61.6069 69.2183 62.8571 66.0641 62.8571 62.1682C62.8566 60.6649 62.8054 59.182 62.7048 57.7611ZM56.0969 68.3741C54.488 69.8906 52.352 70.6278 49.5665 70.6278H13.29C10.504 70.6278 8.368 69.8906 6.7597 68.3747C5.18186 66.8873 4.41507 64.8568 4.41507 62.1688C4.41507 60.7707 4.46163 59.3903 4.55475 58.0651C4.64557 56.765 4.83123 55.3367 5.10656 53.8191C5.37844 52.3203 5.72448 50.9137 6.13604 49.6403C6.53093 48.4193 7.06952 47.2102 7.73744 46.0455C8.3749 44.9355 9.10835 43.9832 9.91767 43.2158C10.6747 42.498 11.6289 41.9105 12.7532 41.4699C13.793 41.0624 14.9616 40.8392 16.2302 40.8056C16.3848 40.887 16.6601 41.0424 17.1062 41.3305C18.0138 41.9162 19.0599 42.5845 20.2164 43.316C21.5201 44.1391 23.1997 44.8826 25.2063 45.5241C27.2578 46.181 29.3501 46.5146 31.4268 46.5146C33.5036 46.5146 35.5965 46.181 37.6468 45.5247C39.6552 44.882 41.3342 44.1391 42.6396 43.3149C43.8231 42.5657 44.8399 41.9168 45.7475 41.3305C46.1936 41.043 46.4689 40.887 46.6235 40.8056C47.8927 40.8392 49.0613 41.0624 50.1017 41.4699C51.2254 41.9105 52.1796 42.4986 52.9366 43.2158C53.7459 43.9826 54.4794 44.9349 55.1168 46.0461C55.7853 47.2102 56.3245 48.4198 56.7188 49.6397C57.1309 50.9148 57.4776 52.3209 57.7489 53.8186C58.0236 55.339 58.2099 56.7678 58.3007 58.0657V58.0668C58.3944 59.3869 58.4415 60.7668 58.4421 62.1688C58.4415 64.8573 57.6747 66.8873 56.0969 68.3741Z" fill="#6C6C6C"/>
</svg>
