<svg width="2089" height="491" viewBox="0 0 2089 491" fill="none" xmlns="http://www.w3.org/2000/svg">
<path d="M225.931 119.05C221.474 119.05 217.861 115.51 217.861 111.139V79.4821C217.861 75.1118 221.474 71.5679 225.931 71.5679C230.387 71.5679 234 75.1118 234 79.4821V111.139C234 115.51 230.387 119.05 225.931 119.05Z" fill="#65DDB9"/>
<path d="M117.525 163.093C115.386 163.09 113.333 162.256 111.819 160.772L83.2868 132.791C80.2304 129.685 80.2733 124.748 83.3868 121.697C86.5003 118.644 91.5312 118.602 94.6983 121.599L123.231 149.583C125.537 151.845 126.226 155.249 124.977 158.205C123.731 161.164 120.788 163.09 117.525 163.093Z" fill="#65DDB9"/>
<path d="M72.6216 269.414H40.3437C35.8877 269.414 32.2743 265.87 32.2743 261.5C32.2743 257.13 35.8877 253.586 40.3437 253.586H72.6216C77.0776 253.586 80.691 257.13 80.691 261.5C80.691 265.87 77.0776 269.414 72.6216 269.414Z" fill="#65DDB9"/>
<path d="M88.9925 403.719C85.7291 403.719 82.7869 401.789 81.5408 398.834C80.2911 395.878 80.9802 392.474 83.2868 390.209L111.819 362.228C114.986 359.227 120.017 359.269 123.131 362.323C126.244 365.377 126.287 370.311 123.231 373.417L94.6983 401.401C93.1844 402.885 91.1313 403.719 88.9925 403.719V403.719Z" fill="#65DDB9"/>
<path d="M225.931 451.432C221.474 451.432 217.861 447.888 217.861 443.518V411.861C217.861 407.49 221.474 403.95 225.931 403.95C230.387 403.95 234 407.49 234 411.861V443.518C234 447.888 230.387 451.432 225.931 451.432Z" fill="#65DDB9"/>
<path d="M362.869 403.719C360.73 403.719 358.677 402.885 357.166 401.401L328.634 373.417C325.574 370.311 325.617 365.377 328.73 362.323C331.844 359.269 336.875 359.227 340.042 362.228L368.574 390.209C370.881 392.474 371.57 395.878 370.324 398.834C369.074 401.789 366.132 403.719 362.869 403.719V403.719Z" fill="#65DDB9"/>
<path d="M419.587 269.414H379.243C374.783 269.414 371.174 265.87 371.174 261.5C371.174 257.13 374.783 253.586 379.243 253.586H419.587C424.043 253.586 427.656 257.13 427.656 261.5C427.656 265.87 424.043 269.414 419.587 269.414V269.414Z" fill="#65DDB9"/>
<path d="M334.336 163.093C331.076 163.09 328.134 161.164 326.884 158.205C325.635 155.249 326.327 151.845 328.634 149.583L357.166 121.599C359.191 119.544 362.19 118.717 365.011 119.442C367.832 120.167 370.035 122.328 370.774 125.094C371.513 127.861 370.67 130.802 368.574 132.791L340.042 160.772C338.528 162.256 336.479 163.09 334.336 163.093V163.093Z" fill="#65DDB9"/>
<path d="M379.243 261.5C379.243 344.544 310.603 411.861 225.931 411.861C141.258 411.861 72.6216 344.544 72.6216 261.5C72.6216 178.456 141.258 111.139 225.931 111.139C310.603 111.139 379.243 178.456 379.243 261.5Z" fill="#2ACC37"/>
<path d="M225.931 388.121C221.474 388.121 217.861 384.577 217.861 380.207C217.861 375.837 221.474 372.293 225.931 372.293C288.294 372.226 338.832 322.661 338.896 261.5C338.896 257.13 342.509 253.586 346.965 253.586C351.421 253.586 355.035 257.13 355.035 261.5C354.949 331.398 297.199 388.037 225.931 388.121Z" fill="#65DDB9"/>
<path d="M290.483 206.104C290.483 223.585 276.033 237.757 258.208 237.757C240.381 237.757 225.931 223.585 225.931 206.104C225.931 188.622 240.381 174.45 258.208 174.45C276.033 174.45 290.483 188.622 290.483 206.104V206.104Z" fill="#65DDB9"/>
<path d="M177.517 229.846C177.517 242.957 166.681 253.586 153.309 253.586C139.941 253.586 129.104 242.957 129.104 229.846C129.104 216.732 139.941 206.104 153.309 206.104C166.681 206.104 177.517 216.732 177.517 229.846Z" fill="#65DDB9"/>
<path d="M250.139 301.068C250.139 314.182 239.299 324.811 225.931 324.811C212.562 324.811 201.726 314.182 201.726 301.068C201.726 287.957 212.562 277.329 225.931 277.329C239.299 277.329 250.139 287.957 250.139 301.068V301.068Z" fill="#65DDB9"/>
<path d="M137.174 308.982C136.117 308.972 135.078 308.755 134.107 308.348C133.128 307.949 132.228 307.385 131.443 306.688C130.715 305.932 130.14 305.046 129.75 304.076C129.336 303.123 129.115 302.104 129.104 301.068C129.136 298.974 129.972 296.967 131.443 295.451C132.228 294.75 133.128 294.19 134.107 293.787C137.117 292.593 140.559 293.245 142.901 295.451C144.375 296.967 145.211 298.974 145.243 301.068C145.229 302.104 145.011 303.123 144.597 304.076C144.208 305.046 143.629 305.932 142.901 306.688C141.355 308.131 139.309 308.951 137.174 308.982Z" fill="#65DDB9"/>
<path d="M177.517 356.464C176.464 356.454 175.421 356.237 174.45 355.834C173.472 355.431 172.572 354.867 171.787 354.171C171.058 353.414 170.483 352.528 170.094 351.558C169.68 350.609 169.462 349.587 169.448 348.55C169.48 346.456 170.316 344.449 171.787 342.933C172.572 342.236 173.472 341.672 174.45 341.27C177.46 340.075 180.906 340.727 183.245 342.933C184.719 344.449 185.555 346.456 185.587 348.55C185.573 349.587 185.355 350.609 184.941 351.558C184.551 352.528 183.977 353.414 183.245 354.171C181.698 355.617 179.653 356.436 177.517 356.464V356.464Z" fill="#65DDB9"/>
<path d="M250.139 55.7428C250.139 68.8539 239.299 79.4822 225.931 79.4822C212.562 79.4822 201.726 68.8539 201.726 55.7428C201.726 42.6282 212.562 32 225.931 32C239.299 32 250.139 42.6282 250.139 55.7428Z" fill="#65DDB9"/>
<path d="M98.451 104.815C98.451 122.296 83.9973 136.468 66.1731 136.468C48.3489 136.468 33.8989 122.296 33.8989 104.815C33.8989 87.3334 48.3489 73.1613 66.1731 73.1613C83.9973 73.1613 98.451 87.3334 98.451 104.815Z" fill="#65DDB9"/>
<path d="M40.3437 261.5C40.3437 272.426 31.3138 281.286 20.1736 281.286C9.02994 281.286 0 272.426 0 261.5C0 250.574 9.02994 241.714 20.1736 241.714C31.3138 241.714 40.3437 250.574 40.3437 261.5Z" fill="#65DDB9"/>
<path d="M98.451 418.185C98.451 435.667 83.9973 449.839 66.1731 449.839C48.3489 449.839 33.8989 435.667 33.8989 418.185C33.8989 400.704 48.3489 386.532 66.1731 386.532C83.9973 386.532 98.451 400.704 98.451 418.185V418.185Z" fill="#65DDB9"/>
<path d="M250.139 467.257C250.139 480.372 239.299 491 225.931 491C212.562 491 201.726 480.372 201.726 467.257C201.726 454.146 212.562 443.518 225.931 443.518C239.299 443.518 250.139 454.146 250.139 467.257Z" fill="#65DDB9"/>
<path d="M417.966 418.185C417.966 435.667 403.512 449.839 385.688 449.839C367.864 449.839 353.414 435.667 353.414 418.185C353.414 400.704 367.864 386.532 385.688 386.532C403.512 386.532 417.966 400.704 417.966 418.185V418.185Z" fill="#65DDB9"/>
<path d="M468 261.5C468 274.611 457.163 285.243 443.792 285.243C430.423 285.243 419.587 274.611 419.587 261.5C419.587 248.389 430.423 237.757 443.792 237.757C457.163 237.757 468 248.389 468 261.5Z" fill="#65DDB9"/>
<path d="M417.966 104.815C417.966 122.296 403.512 136.468 385.688 136.468C367.864 136.468 353.414 122.296 353.414 104.815C353.414 87.3334 367.864 73.1613 385.688 73.1613C403.512 73.1613 417.966 87.3334 417.966 104.815V104.815Z" fill="#65DDB9"/>
<path d="M596.078 392.156H574.141V453H565.188V392.156H543.297V384.75H596.078V392.156ZM631.234 425.391H615.203V453H606.156V384.75H628.75C636.438 384.75 642.344 386.5 646.469 390C650.625 393.5 652.703 398.594 652.703 405.281C652.703 409.531 651.547 413.234 649.234 416.391C646.953 419.547 643.766 421.906 639.672 423.469L655.703 452.438V453H646.047L631.234 425.391ZM615.203 418.031H629.031C633.5 418.031 637.047 416.875 639.672 414.562C642.328 412.25 643.656 409.156 643.656 405.281C643.656 401.062 642.391 397.828 639.859 395.578C637.359 393.328 633.734 392.188 628.984 392.156H615.203V418.031ZM703.047 435.188H674.453L668.031 453H658.75L684.812 384.75H692.688L718.797 453H709.562L703.047 435.188ZM677.172 427.781H700.375L688.75 395.859L677.172 427.781ZM777.625 431.344C776.781 438.562 774.109 444.141 769.609 448.078C765.141 451.984 759.188 453.938 751.75 453.938C743.688 453.938 737.219 451.047 732.344 445.266C727.5 439.484 725.078 431.75 725.078 422.062V415.5C725.078 409.156 726.203 403.578 728.453 398.766C730.734 393.953 733.953 390.266 738.109 387.703C742.266 385.109 747.078 383.812 752.547 383.812C759.797 383.812 765.609 385.844 769.984 389.906C774.359 393.938 776.906 399.531 777.625 406.688H768.578C767.797 401.25 766.094 397.312 763.469 394.875C760.875 392.438 757.234 391.219 752.547 391.219C746.797 391.219 742.281 393.344 739 397.594C735.75 401.844 734.125 407.891 734.125 415.734V422.344C734.125 429.75 735.672 435.641 738.766 440.016C741.859 444.391 746.188 446.578 751.75 446.578C756.75 446.578 760.578 445.453 763.234 443.203C765.922 440.922 767.703 436.969 768.578 431.344H777.625ZM807.297 421.266L798.953 429.938V453H789.953V384.75H798.953V418.5L829.281 384.75H840.156L813.297 414.891L842.266 453H831.484L807.297 421.266ZM888.719 421.453H859.141V445.641H893.5V453H850.141V384.75H893.031V392.156H859.141V414.094H888.719V421.453ZM929.734 425.391H913.703V453H904.656V384.75H927.25C934.938 384.75 940.844 386.5 944.969 390C949.125 393.5 951.203 398.594 951.203 405.281C951.203 409.531 950.047 413.234 947.734 416.391C945.453 419.547 942.266 421.906 938.172 423.469L954.203 452.438V453H944.547L929.734 425.391ZM913.703 418.031H927.531C932 418.031 935.547 416.875 938.172 414.562C940.828 412.25 942.156 409.156 942.156 405.281C942.156 401.062 940.891 397.828 938.359 395.578C935.859 393.328 932.234 392.188 927.484 392.156H913.703V418.031Z" fill="#606060"/>
<path d="M550.504 215.624C550.504 195.656 554.824 177.896 563.464 162.344C572.104 146.6 584.104 134.408 599.464 125.768C615.016 116.936 632.584 112.52 652.168 112.52C676.168 112.52 696.712 118.856 713.8 131.528C730.888 144.2 742.312 161.48 748.072 183.368H693.928C689.896 174.92 684.136 168.488 676.648 164.072C669.352 159.656 661 157.448 651.592 157.448C636.424 157.448 624.136 162.728 614.728 173.288C605.32 183.848 600.616 197.96 600.616 215.624C600.616 233.288 605.32 247.4 614.728 257.96C624.136 268.52 636.424 273.8 651.592 273.8C661 273.8 669.352 271.592 676.648 267.176C684.136 262.76 689.896 256.328 693.928 247.88H748.072C742.312 269.768 730.888 287.048 713.8 299.72C696.712 312.2 676.168 318.44 652.168 318.44C632.584 318.44 615.016 314.12 599.464 305.48C584.104 296.648 572.104 284.456 563.464 268.904C554.824 253.352 550.504 235.592 550.504 215.624ZM1194.43 114.824L1122.72 317H1061.09L989.373 114.824H1041.79L1091.9 267.464L1142.3 114.824H1194.43ZM1264.26 114.824V317H1215.01V114.824H1264.26ZM1375.69 114.824C1397.01 114.824 1415.63 119.048 1431.57 127.496C1447.5 135.944 1459.79 147.848 1468.43 163.208C1477.26 178.376 1481.68 195.944 1481.68 215.912C1481.68 235.688 1477.26 253.256 1468.43 268.616C1459.79 283.976 1447.41 295.88 1431.28 304.328C1415.34 312.776 1396.81 317 1375.69 317H1299.95V114.824H1375.69ZM1372.53 274.376C1391.15 274.376 1405.65 269.288 1416.01 259.112C1426.38 248.936 1431.57 234.536 1431.57 215.912C1431.57 197.288 1426.38 182.792 1416.01 172.424C1405.65 162.056 1391.15 156.872 1372.53 156.872H1349.2V274.376H1372.53ZM1633.04 195.464V236.36H1506.32V195.464H1633.04ZM1666.18 152.552V106.76H1745.96V317H1694.69V152.552H1666.18ZM1832.64 255.368C1835.52 270.536 1844.35 278.12 1859.14 278.12C1869.31 278.12 1876.51 273.608 1880.74 264.584C1884.96 255.56 1887.07 240.872 1887.07 220.52C1882.85 226.472 1877.09 231.08 1869.79 234.344C1862.5 237.608 1854.34 239.24 1845.31 239.24C1833.02 239.24 1822.08 236.744 1812.48 231.752C1802.88 226.568 1795.3 218.984 1789.73 209C1784.35 198.824 1781.66 186.536 1781.66 172.136C1781.66 157.928 1784.54 145.544 1790.3 134.984C1796.26 124.424 1804.61 116.264 1815.36 110.504C1826.3 104.744 1839.17 101.864 1853.95 101.864C1882.37 101.864 1902.24 110.696 1913.57 128.36C1924.9 146.024 1930.56 172.04 1930.56 206.408C1930.56 231.368 1928.26 252.008 1923.65 268.328C1919.23 284.456 1911.65 296.744 1900.9 305.192C1890.34 313.64 1875.84 317.864 1857.41 317.864C1842.82 317.864 1830.34 314.984 1819.97 309.224C1809.79 303.464 1801.92 295.88 1796.35 286.472C1790.98 277.064 1787.9 266.696 1787.14 255.368H1832.64ZM1856.54 200.36C1864.61 200.36 1871.04 197.96 1875.84 193.16C1880.64 188.168 1883.04 181.448 1883.04 173C1883.04 163.784 1880.54 156.68 1875.55 151.688C1870.56 146.696 1863.84 144.2 1855.39 144.2C1846.94 144.2 1840.22 146.792 1835.23 151.976C1830.43 156.968 1828.03 163.88 1828.03 172.712C1828.03 180.968 1830.43 187.688 1835.23 192.872C1840.22 197.864 1847.33 200.36 1856.54 200.36Z" fill="#606060"/>
<path d="M873.847 319.016C854.839 319.016 837.367 314.6 821.431 305.768C805.687 296.936 793.111 284.648 783.703 268.904C774.487 252.968 769.879 235.112 769.879 215.336C769.879 195.56 774.487 177.8 783.703 162.056C793.111 146.312 805.687 134.024 821.431 125.192C837.367 116.36 854.839 111.944 873.847 111.944C892.855 111.944 910.231 116.36 925.975 125.192C941.911 134.024 954.391 146.312 963.415 162.056C972.631 177.8 977.239 195.56 977.239 215.336C977.239 235.112 972.631 252.968 963.415 268.904C954.199 284.648 941.719 296.936 925.975 305.768C910.231 314.6 892.855 319.016 873.847 319.016ZM873.847 274.088C889.975 274.088 902.839 268.712 912.439 257.96C922.231 247.208 927.127 233 927.127 215.336C927.127 197.48 922.231 183.272 912.439 172.712C902.839 161.96 889.975 156.584 873.847 156.584C857.527 156.584 844.471 161.864 834.679 172.424C825.079 182.984 820.279 197.288 820.279 215.336C820.279 233.192 825.079 247.496 834.679 258.248C844.471 268.808 857.527 274.088 873.847 274.088Z" fill="#33CC44"/>
</svg>
